<svg xmlns="http://www.w3.org/2000/svg" viewBox="0 0 200 220">
  <defs>
    <radialGradient id="r4" cx="35%" cy="30%" r="70%">
      <stop offset="0%" stop-color="#ffe566"/><stop offset="35%" stop-color="#ffcc00"/><stop offset="75%" stop-color="#dd9900"/><stop offset="100%" stop-color="#aa6600"/>
    </radialGradient>
    <linearGradient id="shine4" x1="0%" y1="0%" x2="100%" y2="0%">
      <stop offset="0%" stop-color="#000" stop-opacity="0.3"/><stop offset="18%" stop-color="#fff" stop-opacity="0.4"/><stop offset="35%" stop-color="#fff" stop-opacity="0.12"/><stop offset="100%" stop-color="#000" stop-opacity="0.4"/>
    </linearGradient>
    <linearGradient id="rim4" x1="0%" y1="0%" x2="0%" y2="100%">
      <stop offset="0%" stop-color="#ffffcc"/><stop offset="40%" stop-color="#ffee88"/><stop offset="100%" stop-color="#cc9900"/>
    </linearGradient>
    <radialGradient id="goldenGlow" cx="50%" cy="50%" r="50%">
      <stop offset="0%" stop-color="#ffcc00" stop-opacity="0.3"/><stop offset="100%" stop-color="#ffcc00" stop-opacity="0"/>
    </radialGradient>
    <filter id="goldBlur"><feGaussianBlur stdDeviation="3"/></filter>
    <clipPath id="bc4"><polygon points="38,55 162,55 148,185 52,185"/></clipPath>
  </defs>
  <!-- Large golden glow -->
  <ellipse cx="100" cy="120" rx="90" ry="85" fill="url(#goldenGlow)"/>
  <!-- Inner glow blur -->
  <ellipse cx="100" cy="120" rx="60" ry="55" fill="#ffcc00" opacity="0.08" filter="url(#goldBlur)"/>
  <!-- Sparkles -->
  <text x="28" y="45" font-size="14" opacity="0.9">✨</text>
  <text x="158" y="50" font-size="12" opacity="0.8">✨</text>
  <text x="22" y="130" font-size="10" opacity="0.7">⭐</text>
  <text x="168" y="120" font-size="10" opacity="0.75">⭐</text>
  <text x="100" y="208" font-size="8" text-anchor="middle" opacity="0.6">✨</text>
  <!-- Handle - golden -->
  <path d="M68,48 Q100,12 132,48" stroke="url(#rim4)" stroke-width="8" fill="none" stroke-linecap="round"/>
  <path d="M68,48 Q100,12 132,48" stroke="#fff" stroke-width="2.5" fill="none" stroke-linecap="round" opacity="0.5"/>
  <circle cx="68" cy="50" r="8" fill="#ffdd44" stroke="#cc9900" stroke-width="2"/>
  <circle cx="68" cy="48" r="3" fill="#fff" opacity="0.4"/>
  <circle cx="132" cy="50" r="8" fill="#ffdd44" stroke="#cc9900" stroke-width="2"/>
  <circle cx="132" cy="48" r="3" fill="#fff" opacity="0.4"/>
  <!-- Golden body -->
  <polygon points="38,55 162,55 148,185 52,185" fill="url(#r4)"/>
  <!-- Engrave pattern lines -->
  <line x1="70" y1="68" x2="64" y2="178" stroke="#cc9900" stroke-width="1" opacity="0.2" clip-path="url(#bc4)"/>
  <line x1="100" y1="60" x2="100" y2="182" stroke="#cc9900" stroke-width="1" opacity="0.15" clip-path="url(#bc4)"/>
  <line x1="130" y1="65" x2="136" y2="178" stroke="#cc9900" stroke-width="1" opacity="0.2" clip-path="url(#bc4)"/>
  <!-- Diamond pattern engraving -->
  <ellipse cx="100" cy="120" rx="28" ry="34" fill="none" stroke="#cc9900" stroke-width="1.5" opacity="0.25" clip-path="url(#bc4)"/>
  <!-- Shine -->
  <polygon points="38,55 162,55 148,185 52,185" fill="url(#shine4)"/>
  <!-- Rims golden -->
  <rect x="33" y="50" width="134" height="13" rx="4" fill="url(#rim4)"/>
  <rect x="33" y="50" width="134" height="5" rx="4" fill="#fff" opacity="0.4"/>
  <rect x="47" y="181" width="106" height="11" rx="4" fill="url(#rim4)"/>
  <rect x="47" y="181" width="106" height="5" rx="4" fill="#fff" opacity="0.35"/>
  <!-- Rainbow candy overflowing -->
  <ellipse cx="56" cy="56" rx="6" ry="4.5" fill="#ff2244"/>
  <ellipse cx="70" cy="54" rx="7" ry="5.5" fill="#ff8800"/><ellipse cx="70" cy="54" rx="7" ry="2.5" fill="#fff" opacity="0.4"/>
  <ellipse cx="85" cy="55" rx="6.5" ry="5" fill="#ee44aa"/><ellipse cx="85" cy="55" rx="6.5" ry="2" fill="#fff" opacity="0.35"/>
  <ellipse cx="100" cy="54" rx="7" ry="5.5" fill="#9922ee"/><ellipse cx="100" cy="54" rx="7" ry="2.5" fill="#fff" opacity="0.4"/>
  <ellipse cx="115" cy="55" rx="6.5" ry="5" fill="#00ccff"/><ellipse cx="115" cy="55" rx="6.5" ry="2" fill="#fff" opacity="0.35"/>
  <ellipse cx="130" cy="54" rx="7" ry="5.5" fill="#22ee44"/><ellipse cx="130" cy="54" rx="7" ry="2.5" fill="#fff" opacity="0.4"/>
  <ellipse cx="145" cy="56" rx="6" ry="4.5" fill="#ff6600"/>
  <!-- Tiny gems on rim -->
  <circle cx="55" cy="56" r="2.5" fill="#66eeff" opacity="0.9"/>
  <circle cx="100" cy="56" r="2.5" fill="#ff66ee" opacity="0.9"/>
  <circle cx="145" cy="56" r="2.5" fill="#66ff88" opacity="0.9"/>
</svg>